<?xml version="1.0" encoding="UTF-8" standalone="no"?><svg xmlns="http://www.w3.org/2000/svg" xmlns:xlink="http://www.w3.org/1999/xlink" contentStyleType="text/css" height="1355px" preserveAspectRatio="none" style="width:373px;height:1355px;background:#FFFFFF;" version="1.1" viewBox="0 0 373 1355" width="373px" zoomAndPan="magnify"><defs/><g><ellipse cx="177.5" cy="20" fill="#FFFFFF" rx="10" ry="10" style="stroke:#222222;stroke-width:1.0;"/><rect fill="#FFC0CB" height="33.9688" rx="12.5" ry="12.5" style="stroke:#181818;stroke-width:0.5;" width="149" x="103" y="98.4023"/><text fill="#000000" font-family="sans-serif" font-size="12" lengthAdjust="spacing" textLength="129" x="113" y="119.541">Show error message</text><polygon fill="#FFFFFF" points="32,50,323,50,335,62,323,74,32,74,20,62,32,50" style="stroke:#181818;stroke-width:0.5;"/><text fill="#000000" font-family="sans-serif" font-size="11" lengthAdjust="spacing" textLength="14" x="181.5" y="84.2104">no</text><text fill="#000000" font-family="sans-serif" font-size="11" lengthAdjust="spacing" textLength="291" x="32" y="65.8081">Is either BWA-MEM2 or HISAT2 listed as an aligner?</text><rect fill="#FFFFFF" height="33.9688" rx="12.5" ry="12.5" style="stroke:#181818;stroke-width:0.5;" width="244" x="55.5" y="174.3711"/><text fill="#000000" font-family="sans-serif" font-size="12" lengthAdjust="spacing" textLength="224" x="65.5" y="195.5098">Load Paired FASTQ(s) single sample</text><rect fill="#FFFFFF" height="33.9688" rx="12.5" ry="12.5" style="stroke:#181818;stroke-width:0.5;" width="114" x="120.5" y="228.3398"/><text fill="#000000" font-family="sans-serif" font-size="12" lengthAdjust="spacing" textLength="94" x="130.5" y="249.4785">Validate Inputs</text><rect fill="#FFFFFF" height="361.4609" style="stroke:#000000;stroke-width:1.5;" width="290" x="32.5" y="328.019"/><path d="M172.5,328.019 L172.5,337.3159 L162.5,347.3159 L32.5,347.3159 " fill="none" style="stroke:#000000;stroke-width:1.5;"/><text fill="#000000" font-family="sans-serif" font-size="14" lengthAdjust="spacing" textLength="130" x="35.5" y="342.0142">BWA-MEM2 Aligner</text><rect fill="#FFFFFF" height="33.9688" rx="12.5" ry="12.5" style="stroke:#181818;stroke-width:0.5;" width="46" x="154.5" y="364.3159"/><text fill="#000000" font-family="sans-serif" font-size="12" lengthAdjust="spacing" textLength="26" x="164.5" y="385.4546">Sort</text><rect fill="#FFFFFF" height="33.9688" rx="12.5" ry="12.5" style="stroke:#181818;stroke-width:0.5;" width="270" x="42.5" y="418.2847"/><text fill="#000000" font-family="sans-serif" font-size="12" lengthAdjust="spacing" textLength="250" x="52.5" y="439.4233">Merge and mark duplicates if necessary</text><rect fill="#FFFFFF" height="33.9688" rx="12.5" ry="12.5" style="stroke:#181818;stroke-width:0.5;" width="84" x="135.5" y="472.2534"/><text fill="#000000" font-family="sans-serif" font-size="12" lengthAdjust="spacing" textLength="64" x="145.5" y="493.3921">Index bam</text><rect fill="#FFFFFF" height="33.9688" rx="12.5" ry="12.5" style="stroke:#181818;stroke-width:0.5;" width="115" x="120" y="535.5737"/><text fill="#000000" font-family="sans-serif" font-size="12" lengthAdjust="spacing" textLength="95" x="130" y="556.7124">Create SHA512</text><rect fill="#FFFFFF" height="33.9688" rx="12.5" ry="12.5" style="stroke:#181818;stroke-width:0.5;" width="124" x="115.5" y="589.5425"/><text fill="#000000" font-family="sans-serif" font-size="12" lengthAdjust="spacing" textLength="104" x="125.5" y="610.6812">Validate outputs</text><rect fill="#90EE90" height="33.9688" rx="12.5" ry="12.5" style="stroke:#181818;stroke-width:0.5;" width="211" x="72" y="643.5112"/><text fill="#000000" font-family="sans-serif" font-size="12" lengthAdjust="spacing" textLength="191" x="82" y="664.6499">Create bam and bam index file</text><polygon fill="#FFFFFF" points="127,282.3086,228,282.3086,240,294.3086,228,306.3086,127,306.3086,115,294.3086,127,282.3086" style="stroke:#181818;stroke-width:0.5;"/><text fill="#000000" font-family="sans-serif" font-size="11" lengthAdjust="spacing" textLength="20" x="181.5" y="316.519">yes</text><text fill="#000000" font-family="sans-serif" font-size="11" lengthAdjust="spacing" textLength="101" x="127" y="298.1167">using BWA-MEM2?</text><polygon fill="#FFFFFF" points="177.5,709.48,189.5,721.48,177.5,733.48,165.5,721.48,177.5,709.48" style="stroke:#181818;stroke-width:0.5;"/><rect fill="#FFFFFF" height="361.4609" style="stroke:#000000;stroke-width:1.5;" width="290" x="32.5" y="799.1904"/><path d="M142.5,799.1904 L142.5,808.4873 L132.5,818.4873 L32.5,818.4873 " fill="none" style="stroke:#000000;stroke-width:1.5;"/><text fill="#000000" font-family="sans-serif" font-size="14" lengthAdjust="spacing" textLength="100" x="35.5" y="813.1855">HISAT2 Aligner</text><rect fill="#FFFFFF" height="33.9688" rx="12.5" ry="12.5" style="stroke:#181818;stroke-width:0.5;" width="46" x="154.5" y="835.4873"/><text fill="#000000" font-family="sans-serif" font-size="12" lengthAdjust="spacing" textLength="26" x="164.5" y="856.626">Sort</text><rect fill="#FFFFFF" height="33.9688" rx="12.5" ry="12.5" style="stroke:#181818;stroke-width:0.5;" width="270" x="42.5" y="889.4561"/><text fill="#000000" font-family="sans-serif" font-size="12" lengthAdjust="spacing" textLength="250" x="52.5" y="910.5947">Merge and mark duplicates if necessary</text><rect fill="#FFFFFF" height="33.9688" rx="12.5" ry="12.5" style="stroke:#181818;stroke-width:0.5;" width="84" x="135.5" y="943.4248"/><text fill="#000000" font-family="sans-serif" font-size="12" lengthAdjust="spacing" textLength="64" x="145.5" y="964.5635">Index bam</text><rect fill="#FFFFFF" height="33.9688" rx="12.5" ry="12.5" style="stroke:#181818;stroke-width:0.5;" width="115" x="120" y="1006.7451"/><text fill="#000000" font-family="sans-serif" font-size="12" lengthAdjust="spacing" textLength="95" x="130" y="1027.8838">Create SHA512</text><rect fill="#FFFFFF" height="33.9688" rx="12.5" ry="12.5" style="stroke:#181818;stroke-width:0.5;" width="124" x="115.5" y="1060.7139"/><text fill="#000000" font-family="sans-serif" font-size="12" lengthAdjust="spacing" textLength="104" x="125.5" y="1081.8525">Validate outputs</text><rect fill="#90EE90" height="33.9688" rx="12.5" ry="12.5" style="stroke:#181818;stroke-width:0.5;" width="211" x="72" y="1114.6826"/><text fill="#000000" font-family="sans-serif" font-size="12" lengthAdjust="spacing" textLength="191" x="82" y="1135.8213">Create bam and bam index file</text><polygon fill="#FFFFFF" points="137,753.48,218,753.48,230,765.48,218,777.48,137,777.48,125,765.48,137,753.48" style="stroke:#181818;stroke-width:0.5;"/><text fill="#000000" font-family="sans-serif" font-size="11" lengthAdjust="spacing" textLength="20" x="181.5" y="787.6904">yes</text><text fill="#000000" font-family="sans-serif" font-size="11" lengthAdjust="spacing" textLength="81" x="137" y="769.2881">using HISAT2?</text><polygon fill="#FFFFFF" points="177.5,1180.6514,189.5,1192.6514,177.5,1204.6514,165.5,1192.6514,177.5,1180.6514" style="stroke:#181818;stroke-width:0.5;"/><ellipse cx="177.5" cy="1235.6514" fill="#FFFFFF" rx="11" ry="11" style="stroke:#222222;stroke-width:1.0;"/><ellipse cx="177.5" cy="1235.6514" fill="#222222" rx="6" ry="6" style="stroke:#909090;stroke-width:1.0;"/><line style="stroke:#181818;stroke-width:1.0;" x1="177.5" x2="177.5" y1="74" y2="98.4023"/><polygon fill="#181818" points="173.5,88.4023,177.5,98.4023,181.5,88.4023,177.5,92.4023" style="stroke:#181818;stroke-width:1.0;"/><line style="stroke:#181818;stroke-width:1.0;" x1="335" x2="347" y1="62" y2="62"/><polygon fill="#181818" points="343,102.3867,347,112.3867,351,102.3867,347,106.3867" style="stroke:#181818;stroke-width:1.0;"/><line style="stroke:#181818;stroke-width:1.0;" x1="347" x2="347" y1="62" y2="154.3711"/><line style="stroke:#181818;stroke-width:1.0;" x1="347" x2="177.5" y1="154.3711" y2="154.3711"/><line style="stroke:#181818;stroke-width:1.0;" x1="177.5" x2="177.5" y1="154.3711" y2="174.3711"/><polygon fill="#181818" points="173.5,164.3711,177.5,174.3711,181.5,164.3711,177.5,168.3711" style="stroke:#181818;stroke-width:1.0;"/><line style="stroke:#181818;stroke-width:1.0;" x1="177.5" x2="177.5" y1="30" y2="50"/><polygon fill="#181818" points="173.5,40,177.5,50,181.5,40,177.5,44" style="stroke:#181818;stroke-width:1.0;"/><line style="stroke:#181818;stroke-width:1.0;" x1="177.5" x2="177.5" y1="208.3398" y2="228.3398"/><polygon fill="#181818" points="173.5,218.3398,177.5,228.3398,181.5,218.3398,177.5,222.3398" style="stroke:#181818;stroke-width:1.0;"/><line style="stroke:#181818;stroke-width:1.0;" x1="177.5" x2="177.5" y1="398.2847" y2="418.2847"/><polygon fill="#181818" points="173.5,408.2847,177.5,418.2847,181.5,408.2847,177.5,412.2847" style="stroke:#181818;stroke-width:1.0;"/><line style="stroke:#181818;stroke-width:1.0;" x1="177.5" x2="177.5" y1="452.2534" y2="472.2534"/><polygon fill="#181818" points="173.5,462.2534,177.5,472.2534,181.5,462.2534,177.5,466.2534" style="stroke:#181818;stroke-width:1.0;"/><line style="stroke:#181818;stroke-width:1.0;" x1="177.5" x2="177.5" y1="506.2222" y2="535.5737"/><polygon fill="#181818" points="173.5,525.5737,177.5,535.5737,181.5,525.5737,177.5,529.5737" style="stroke:#181818;stroke-width:1.0;"/><line style="stroke:#181818;stroke-width:1.0;" x1="177.5" x2="177.5" y1="569.5425" y2="589.5425"/><polygon fill="#181818" points="173.5,579.5425,177.5,589.5425,181.5,579.5425,177.5,583.5425" style="stroke:#181818;stroke-width:1.0;"/><line style="stroke:#181818;stroke-width:1.0;" x1="177.5" x2="177.5" y1="623.5112" y2="643.5112"/><polygon fill="#181818" points="173.5,633.5112,177.5,643.5112,181.5,633.5112,177.5,637.5112" style="stroke:#181818;stroke-width:1.0;"/><line style="stroke:#181818;stroke-width:1.0;" x1="177.5" x2="177.5" y1="306.3086" y2="364.3159"/><polygon fill="#181818" points="173.5,354.3159,177.5,364.3159,181.5,354.3159,177.5,358.3159" style="stroke:#181818;stroke-width:1.0;"/><line style="stroke:#181818;stroke-width:1.0;" x1="240" x2="332.5" y1="294.3086" y2="294.3086"/><polygon fill="#181818" points="328.5,505.5737,332.5,515.5737,336.5,505.5737,332.5,509.5737" style="stroke:#181818;stroke-width:1.0;"/><line style="stroke:#181818;stroke-width:1.0;" x1="332.5" x2="332.5" y1="294.3086" y2="721.48"/><line style="stroke:#181818;stroke-width:1.0;" x1="332.5" x2="189.5" y1="721.48" y2="721.48"/><polygon fill="#181818" points="199.5,717.48,189.5,721.48,199.5,725.48,195.5,721.48" style="stroke:#181818;stroke-width:1.0;"/><line style="stroke:#181818;stroke-width:1.0;" x1="177.5" x2="177.5" y1="677.48" y2="709.48"/><polygon fill="#181818" points="173.5,699.48,177.5,709.48,181.5,699.48,177.5,703.48" style="stroke:#181818;stroke-width:1.0;"/><line style="stroke:#181818;stroke-width:1.0;" x1="177.5" x2="177.5" y1="262.3086" y2="282.3086"/><polygon fill="#181818" points="173.5,272.3086,177.5,282.3086,181.5,272.3086,177.5,276.3086" style="stroke:#181818;stroke-width:1.0;"/><line style="stroke:#181818;stroke-width:1.0;" x1="177.5" x2="177.5" y1="869.4561" y2="889.4561"/><polygon fill="#181818" points="173.5,879.4561,177.5,889.4561,181.5,879.4561,177.5,883.4561" style="stroke:#181818;stroke-width:1.0;"/><line style="stroke:#181818;stroke-width:1.0;" x1="177.5" x2="177.5" y1="923.4248" y2="943.4248"/><polygon fill="#181818" points="173.5,933.4248,177.5,943.4248,181.5,933.4248,177.5,937.4248" style="stroke:#181818;stroke-width:1.0;"/><line style="stroke:#181818;stroke-width:1.0;" x1="177.5" x2="177.5" y1="977.3936" y2="1006.7451"/><polygon fill="#181818" points="173.5,996.7451,177.5,1006.7451,181.5,996.7451,177.5,1000.7451" style="stroke:#181818;stroke-width:1.0;"/><line style="stroke:#181818;stroke-width:1.0;" x1="177.5" x2="177.5" y1="1040.7139" y2="1060.7139"/><polygon fill="#181818" points="173.5,1050.7139,177.5,1060.7139,181.5,1050.7139,177.5,1054.7139" style="stroke:#181818;stroke-width:1.0;"/><line style="stroke:#181818;stroke-width:1.0;" x1="177.5" x2="177.5" y1="1094.6826" y2="1114.6826"/><polygon fill="#181818" points="173.5,1104.6826,177.5,1114.6826,181.5,1104.6826,177.5,1108.6826" style="stroke:#181818;stroke-width:1.0;"/><line style="stroke:#181818;stroke-width:1.0;" x1="177.5" x2="177.5" y1="777.48" y2="835.4873"/><polygon fill="#181818" points="173.5,825.4873,177.5,835.4873,181.5,825.4873,177.5,829.4873" style="stroke:#181818;stroke-width:1.0;"/><line style="stroke:#181818;stroke-width:1.0;" x1="230" x2="332.5" y1="765.48" y2="765.48"/><polygon fill="#181818" points="328.5,976.7451,332.5,986.7451,336.5,976.7451,332.5,980.7451" style="stroke:#181818;stroke-width:1.0;"/><line style="stroke:#181818;stroke-width:1.0;" x1="332.5" x2="332.5" y1="765.48" y2="1192.6514"/><line style="stroke:#181818;stroke-width:1.0;" x1="332.5" x2="189.5" y1="1192.6514" y2="1192.6514"/><polygon fill="#181818" points="199.5,1188.6514,189.5,1192.6514,199.5,1196.6514,195.5,1192.6514" style="stroke:#181818;stroke-width:1.0;"/><line style="stroke:#181818;stroke-width:1.0;" x1="177.5" x2="177.5" y1="1148.6514" y2="1180.6514"/><polygon fill="#181818" points="173.5,1170.6514,177.5,1180.6514,181.5,1170.6514,177.5,1174.6514" style="stroke:#181818;stroke-width:1.0;"/><line style="stroke:#181818;stroke-width:1.0;" x1="177.5" x2="177.5" y1="733.48" y2="753.48"/><polygon fill="#181818" points="173.5,743.48,177.5,753.48,181.5,743.48,177.5,747.48" style="stroke:#181818;stroke-width:1.0;"/><line style="stroke:#181818;stroke-width:1.0;" x1="177.5" x2="177.5" y1="1204.6514" y2="1224.6514"/><polygon fill="#181818" points="173.5,1214.6514,177.5,1224.6514,181.5,1214.6514,177.5,1218.6514" style="stroke:#181818;stroke-width:1.0;"/><rect fill="#FFFFFF" height="81.1875" rx="7.5" ry="7.5" style="stroke:#000000;stroke-width:1.0;" width="187" x="91.5" y="1253.6514"/><text fill="#000000" font-family="sans-serif" font-size="14" lengthAdjust="spacing" textLength="36" x="101.5" y="1274.6465">Color</text><text fill="#000000" font-family="sans-serif" font-size="14" lengthAdjust="spacing" textLength="94" x="145.5" y="1274.6465">Process Type</text><rect fill="#FFFFFF" height="16.2969" style="stroke:none;stroke-width:1.0;" width="44" x="97.5" y="1277.9482"/><text fill="#000000" font-family="sans-serif" font-size="14" lengthAdjust="spacing" textLength="4" x="97.5" y="1290.9434"> </text><text fill="#000000" font-family="sans-serif" font-size="14" lengthAdjust="spacing" textLength="123" x="145.5" y="1290.9434">Intermediate Step</text><rect fill="#90EE90" height="16.2969" style="stroke:none;stroke-width:1.0;" width="44" x="97.5" y="1294.2451"/><text fill="#000000" font-family="sans-serif" font-size="14" lengthAdjust="spacing" textLength="4" x="97.5" y="1307.2402"> </text><text fill="#000000" font-family="sans-serif" font-size="14" lengthAdjust="spacing" textLength="48" x="145.5" y="1307.2402">Output</text><rect fill="#FFC0CB" height="16.2969" style="stroke:none;stroke-width:1.0;" width="44" x="97.5" y="1310.542"/><text fill="#000000" font-family="sans-serif" font-size="14" lengthAdjust="spacing" textLength="4" x="97.5" y="1323.5371"> </text><text fill="#000000" font-family="sans-serif" font-size="14" lengthAdjust="spacing" textLength="33" x="145.5" y="1323.5371">Error</text><line style="stroke:#000000;stroke-width:1.0;" x1="97.5" x2="272.5" y1="1261.6514" y2="1261.6514"/><line style="stroke:#000000;stroke-width:1.0;" x1="97.5" x2="272.5" y1="1277.9482" y2="1277.9482"/><line style="stroke:#000000;stroke-width:1.0;" x1="97.5" x2="272.5" y1="1294.2451" y2="1294.2451"/><line style="stroke:#000000;stroke-width:1.0;" x1="97.5" x2="272.5" y1="1310.542" y2="1310.542"/><line style="stroke:#000000;stroke-width:1.0;" x1="97.5" x2="272.5" y1="1326.8389" y2="1326.8389"/><line style="stroke:#000000;stroke-width:1.0;" x1="97.5" x2="97.5" y1="1261.6514" y2="1326.8389"/><line style="stroke:#000000;stroke-width:1.0;" x1="141.5" x2="141.5" y1="1261.6514" y2="1326.8389"/><line style="stroke:#000000;stroke-width:1.0;" x1="272.5" x2="272.5" y1="1261.6514" y2="1326.8389"/><!--MD5=[6d38f40b71a2b71d826db7cd12dec5f7]
@startuml
<style>
activityDiagram {
    BackgroundColor #FFFFFF
    BorderColor #000000
    FontColor #000
    }
</style>
start
if (Is either BWA-MEM2 or HISAT2 listed as an aligner?) then (no)
    #pink :Show error message;
    detach 
endif
:Load Paired FASTQ(s) single sample;
:Validate Inputs;
if (using BWA-MEM2?) then (yes)
    group BWA-MEM2 Aligner
    :Sort;
    :Merge and mark duplicates if necessary;
    :Index bam;
    :Create SHA512;
    :Validate outputs;
    #lightgreen :Create bam and bam index file;
    end group
endif

if (using HISAT2?) then (yes)
    group HISAT2 Aligner
    :Sort;
    :Merge and mark duplicates if necessary;
    :Index bam;
    :Create SHA512;
    :Validate outputs;
    #lightgreen :Create bam and bam index file;
    end group
endif
legend
    | Color | Process Type |
    | <#White> | Intermediate Step |
    | <#LightGreen> | Output |
    | <#pink> | Error |
endlegend
stop
@enduml

PlantUML version 1.2022.6(Tue Jun 21 17:34:49 GMT 2022)
(GPL source distribution)
Java Runtime: OpenJDK Runtime Environment
JVM: OpenJDK 64-Bit Server VM
Default Encoding: UTF-8
Language: en
Country: US
--></g></svg>