<?xml version="1.0" encoding="UTF-8" standalone="no"?><svg xmlns="http://www.w3.org/2000/svg" xmlns:xlink="http://www.w3.org/1999/xlink" contentStyleType="text/css" height="1445px" preserveAspectRatio="none" style="width:373px;height:1445px;background:#FFFFFF;" version="1.1" viewBox="0 0 373 1445" width="373px" zoomAndPan="magnify"><defs/><g><ellipse cx="177.5" cy="20" fill="#FFFFFF" rx="10" ry="10" style="stroke:#222222;stroke-width:1.0;"/><rect fill="#FFC0CB" height="33.9688" rx="12.5" ry="12.5" style="stroke:#181818;stroke-width:0.5;" width="149" x="103" y="98.4023"/><text fill="#000000" font-family="sans-serif" font-size="12" lengthAdjust="spacing" textLength="129" x="113" y="119.541">Show error message</text><polygon fill="#FFFFFF" points="32,50,323,50,335,62,323,74,32,74,20,62,32,50" style="stroke:#181818;stroke-width:0.5;"/><text fill="#000000" font-family="sans-serif" font-size="11" lengthAdjust="spacing" textLength="14" x="181.5" y="84.2104">no</text><text fill="#000000" font-family="sans-serif" font-size="11" lengthAdjust="spacing" textLength="291" x="32" y="65.8081">Is either BWA-MEM2 or HISAT2 listed as an aligner?</text><rect fill="#FFFFFF" height="33.9688" rx="12.5" ry="12.5" style="stroke:#181818;stroke-width:0.5;" width="200" x="77.5" y="174.3711"/><text fill="#000000" font-family="sans-serif" font-size="12" lengthAdjust="spacing" textLength="180" x="87.5" y="195.5098">Load FASTQ(s) single sample</text><rect fill="#FFFFFF" height="33.9688" rx="12.5" ry="12.5" style="stroke:#181818;stroke-width:0.5;" width="114" x="120.5" y="228.3398"/><text fill="#000000" font-family="sans-serif" font-size="12" lengthAdjust="spacing" textLength="94" x="130.5" y="249.4785">Validate Inputs</text><rect fill="#FFFFFF" height="406.0781" style="stroke:#000000;stroke-width:1.5;" width="290" x="32.5" y="328.019"/><path d="M172.5,328.019 L172.5,337.3159 L162.5,347.3159 L32.5,347.3159 " fill="none" style="stroke:#000000;stroke-width:1.5;"/><text fill="#000000" font-family="sans-serif" font-size="14" lengthAdjust="spacing" textLength="130" x="35.5" y="342.0142">BWA-MEM2 Aligner</text><rect fill="#FFFFFF" height="33.9688" rx="12.5" ry="12.5" style="stroke:#181818;stroke-width:0.5;" width="50" x="152.5" y="364.3159"/><text fill="#000000" font-family="sans-serif" font-size="12" lengthAdjust="spacing" textLength="30" x="162.5" y="385.4546">Align</text><rect fill="#FFFFFF" height="33.9688" rx="12.5" ry="12.5" style="stroke:#181818;stroke-width:0.5;" width="46" x="154.5" y="418.2847"/><text fill="#000000" font-family="sans-serif" font-size="12" lengthAdjust="spacing" textLength="26" x="164.5" y="439.4233">Sort</text><rect fill="#FFFFFF" height="33.9688" rx="12.5" ry="12.5" style="stroke:#181818;stroke-width:0.5;" width="270" x="42.5" y="472.2534"/><text fill="#000000" font-family="sans-serif" font-size="12" lengthAdjust="spacing" textLength="250" x="52.5" y="493.3921">Merge and mark duplicates if necessary</text><rect fill="#FFFFFF" height="33.9688" rx="12.5" ry="12.5" style="stroke:#181818;stroke-width:0.5;" width="83" x="136" y="526.2222"/><text fill="#000000" font-family="sans-serif" font-size="12" lengthAdjust="spacing" textLength="63" x="146" y="547.3608">Index BAM</text><rect fill="#FFFFFF" height="33.9688" rx="12.5" ry="12.5" style="stroke:#181818;stroke-width:0.5;" width="115" x="120" y="580.1909"/><text fill="#000000" font-family="sans-serif" font-size="12" lengthAdjust="spacing" textLength="95" x="130" y="601.3296">Create SHA512</text><rect fill="#FFFFFF" height="33.9688" rx="12.5" ry="12.5" style="stroke:#181818;stroke-width:0.5;" width="124" x="115.5" y="634.1597"/><text fill="#000000" font-family="sans-serif" font-size="12" lengthAdjust="spacing" textLength="104" x="125.5" y="655.2983">Validate outputs</text><rect fill="#90EE90" height="33.9688" rx="12.5" ry="12.5" style="stroke:#181818;stroke-width:0.5;" width="209" x="73" y="688.1284"/><text fill="#000000" font-family="sans-serif" font-size="12" lengthAdjust="spacing" textLength="189" x="83" y="709.2671">Create BAM and BAM index file</text><polygon fill="#FFFFFF" points="127,282.3086,228,282.3086,240,294.3086,228,306.3086,127,306.3086,115,294.3086,127,282.3086" style="stroke:#181818;stroke-width:0.5;"/><text fill="#000000" font-family="sans-serif" font-size="11" lengthAdjust="spacing" textLength="20" x="181.5" y="316.519">yes</text><text fill="#000000" font-family="sans-serif" font-size="11" lengthAdjust="spacing" textLength="101" x="127" y="298.1167">using BWA-MEM2?</text><polygon fill="#FFFFFF" points="177.5,754.0972,189.5,766.0972,177.5,778.0972,165.5,766.0972,177.5,754.0972" style="stroke:#181818;stroke-width:0.5;"/><rect fill="#FFFFFF" height="406.0781" style="stroke:#000000;stroke-width:1.5;" width="290" x="32.5" y="843.8076"/><path d="M142.5,843.8076 L142.5,853.1045 L132.5,863.1045 L32.5,863.1045 " fill="none" style="stroke:#000000;stroke-width:1.5;"/><text fill="#000000" font-family="sans-serif" font-size="14" lengthAdjust="spacing" textLength="100" x="35.5" y="857.8027">HISAT2 Aligner</text><rect fill="#FFFFFF" height="33.9688" rx="12.5" ry="12.5" style="stroke:#181818;stroke-width:0.5;" width="50" x="152.5" y="880.1045"/><text fill="#000000" font-family="sans-serif" font-size="12" lengthAdjust="spacing" textLength="30" x="162.5" y="901.2432">Align</text><rect fill="#FFFFFF" height="33.9688" rx="12.5" ry="12.5" style="stroke:#181818;stroke-width:0.5;" width="46" x="154.5" y="934.0732"/><text fill="#000000" font-family="sans-serif" font-size="12" lengthAdjust="spacing" textLength="26" x="164.5" y="955.2119">Sort</text><rect fill="#FFFFFF" height="33.9688" rx="12.5" ry="12.5" style="stroke:#181818;stroke-width:0.5;" width="270" x="42.5" y="988.042"/><text fill="#000000" font-family="sans-serif" font-size="12" lengthAdjust="spacing" textLength="250" x="52.5" y="1009.1807">Merge and mark duplicates if necessary</text><rect fill="#FFFFFF" height="33.9688" rx="12.5" ry="12.5" style="stroke:#181818;stroke-width:0.5;" width="83" x="136" y="1042.0107"/><text fill="#000000" font-family="sans-serif" font-size="12" lengthAdjust="spacing" textLength="63" x="146" y="1063.1494">Index BAM</text><rect fill="#FFFFFF" height="33.9688" rx="12.5" ry="12.5" style="stroke:#181818;stroke-width:0.5;" width="115" x="120" y="1095.9795"/><text fill="#000000" font-family="sans-serif" font-size="12" lengthAdjust="spacing" textLength="95" x="130" y="1117.1182">Create SHA512</text><rect fill="#FFFFFF" height="33.9688" rx="12.5" ry="12.5" style="stroke:#181818;stroke-width:0.5;" width="124" x="115.5" y="1149.9482"/><text fill="#000000" font-family="sans-serif" font-size="12" lengthAdjust="spacing" textLength="104" x="125.5" y="1171.0869">Validate outputs</text><rect fill="#90EE90" height="33.9688" rx="12.5" ry="12.5" style="stroke:#181818;stroke-width:0.5;" width="209" x="73" y="1203.917"/><text fill="#000000" font-family="sans-serif" font-size="12" lengthAdjust="spacing" textLength="189" x="83" y="1225.0557">Create BAM and BAM index file</text><polygon fill="#FFFFFF" points="137,798.0972,218,798.0972,230,810.0972,218,822.0972,137,822.0972,125,810.0972,137,798.0972" style="stroke:#181818;stroke-width:0.5;"/><text fill="#000000" font-family="sans-serif" font-size="11" lengthAdjust="spacing" textLength="20" x="181.5" y="832.3076">yes</text><text fill="#000000" font-family="sans-serif" font-size="11" lengthAdjust="spacing" textLength="81" x="137" y="813.9053">using HISAT2?</text><polygon fill="#FFFFFF" points="177.5,1269.8857,189.5,1281.8857,177.5,1293.8857,165.5,1281.8857,177.5,1269.8857" style="stroke:#181818;stroke-width:0.5;"/><ellipse cx="177.5" cy="1324.8857" fill="#FFFFFF" rx="11" ry="11" style="stroke:#222222;stroke-width:1.0;"/><ellipse cx="177.5" cy="1324.8857" fill="#222222" rx="6" ry="6" style="stroke:#909090;stroke-width:1.0;"/><line style="stroke:#181818;stroke-width:1.0;" x1="177.5" x2="177.5" y1="74" y2="98.4023"/><polygon fill="#181818" points="173.5,88.4023,177.5,98.4023,181.5,88.4023,177.5,92.4023" style="stroke:#181818;stroke-width:1.0;"/><line style="stroke:#181818;stroke-width:1.0;" x1="335" x2="347" y1="62" y2="62"/><polygon fill="#181818" points="343,102.3867,347,112.3867,351,102.3867,347,106.3867" style="stroke:#181818;stroke-width:1.0;"/><line style="stroke:#181818;stroke-width:1.0;" x1="347" x2="347" y1="62" y2="154.3711"/><line style="stroke:#181818;stroke-width:1.0;" x1="347" x2="177.5" y1="154.3711" y2="154.3711"/><line style="stroke:#181818;stroke-width:1.0;" x1="177.5" x2="177.5" y1="154.3711" y2="174.3711"/><polygon fill="#181818" points="173.5,164.3711,177.5,174.3711,181.5,164.3711,177.5,168.3711" style="stroke:#181818;stroke-width:1.0;"/><line style="stroke:#181818;stroke-width:1.0;" x1="177.5" x2="177.5" y1="30" y2="50"/><polygon fill="#181818" points="173.5,40,177.5,50,181.5,40,177.5,44" style="stroke:#181818;stroke-width:1.0;"/><line style="stroke:#181818;stroke-width:1.0;" x1="177.5" x2="177.5" y1="208.3398" y2="228.3398"/><polygon fill="#181818" points="173.5,218.3398,177.5,228.3398,181.5,218.3398,177.5,222.3398" style="stroke:#181818;stroke-width:1.0;"/><line style="stroke:#181818;stroke-width:1.0;" x1="177.5" x2="177.5" y1="398.2847" y2="418.2847"/><polygon fill="#181818" points="173.5,408.2847,177.5,418.2847,181.5,408.2847,177.5,412.2847" style="stroke:#181818;stroke-width:1.0;"/><line style="stroke:#181818;stroke-width:1.0;" x1="177.5" x2="177.5" y1="452.2534" y2="472.2534"/><polygon fill="#181818" points="173.5,462.2534,177.5,472.2534,181.5,462.2534,177.5,466.2534" style="stroke:#181818;stroke-width:1.0;"/><line style="stroke:#181818;stroke-width:1.0;" x1="177.5" x2="177.5" y1="506.2222" y2="526.2222"/><polygon fill="#181818" points="173.5,516.2222,177.5,526.2222,181.5,516.2222,177.5,520.2222" style="stroke:#181818;stroke-width:1.0;"/><line style="stroke:#181818;stroke-width:1.0;" x1="177.5" x2="177.5" y1="560.1909" y2="580.1909"/><polygon fill="#181818" points="173.5,570.1909,177.5,580.1909,181.5,570.1909,177.5,574.1909" style="stroke:#181818;stroke-width:1.0;"/><line style="stroke:#181818;stroke-width:1.0;" x1="177.5" x2="177.5" y1="614.1597" y2="634.1597"/><polygon fill="#181818" points="173.5,624.1597,177.5,634.1597,181.5,624.1597,177.5,628.1597" style="stroke:#181818;stroke-width:1.0;"/><line style="stroke:#181818;stroke-width:1.0;" x1="177.5" x2="177.5" y1="668.1284" y2="688.1284"/><polygon fill="#181818" points="173.5,678.1284,177.5,688.1284,181.5,678.1284,177.5,682.1284" style="stroke:#181818;stroke-width:1.0;"/><line style="stroke:#181818;stroke-width:1.0;" x1="177.5" x2="177.5" y1="306.3086" y2="364.3159"/><polygon fill="#181818" points="173.5,354.3159,177.5,364.3159,181.5,354.3159,177.5,358.3159" style="stroke:#181818;stroke-width:1.0;"/><line style="stroke:#181818;stroke-width:1.0;" x1="240" x2="332.5" y1="294.3086" y2="294.3086"/><polygon fill="#181818" points="328.5,525.0581,332.5,535.0581,336.5,525.0581,332.5,529.0581" style="stroke:#181818;stroke-width:1.0;"/><line style="stroke:#181818;stroke-width:1.0;" x1="332.5" x2="332.5" y1="294.3086" y2="766.0972"/><line style="stroke:#181818;stroke-width:1.0;" x1="332.5" x2="189.5" y1="766.0972" y2="766.0972"/><polygon fill="#181818" points="199.5,762.0972,189.5,766.0972,199.5,770.0972,195.5,766.0972" style="stroke:#181818;stroke-width:1.0;"/><line style="stroke:#181818;stroke-width:1.0;" x1="177.5" x2="177.5" y1="722.0972" y2="754.0972"/><polygon fill="#181818" points="173.5,744.0972,177.5,754.0972,181.5,744.0972,177.5,748.0972" style="stroke:#181818;stroke-width:1.0;"/><line style="stroke:#181818;stroke-width:1.0;" x1="177.5" x2="177.5" y1="262.3086" y2="282.3086"/><polygon fill="#181818" points="173.5,272.3086,177.5,282.3086,181.5,272.3086,177.5,276.3086" style="stroke:#181818;stroke-width:1.0;"/><line style="stroke:#181818;stroke-width:1.0;" x1="177.5" x2="177.5" y1="914.0732" y2="934.0732"/><polygon fill="#181818" points="173.5,924.0732,177.5,934.0732,181.5,924.0732,177.5,928.0732" style="stroke:#181818;stroke-width:1.0;"/><line style="stroke:#181818;stroke-width:1.0;" x1="177.5" x2="177.5" y1="968.042" y2="988.042"/><polygon fill="#181818" points="173.5,978.042,177.5,988.042,181.5,978.042,177.5,982.042" style="stroke:#181818;stroke-width:1.0;"/><line style="stroke:#181818;stroke-width:1.0;" x1="177.5" x2="177.5" y1="1022.0107" y2="1042.0107"/><polygon fill="#181818" points="173.5,1032.0107,177.5,1042.0107,181.5,1032.0107,177.5,1036.0107" style="stroke:#181818;stroke-width:1.0;"/><line style="stroke:#181818;stroke-width:1.0;" x1="177.5" x2="177.5" y1="1075.9795" y2="1095.9795"/><polygon fill="#181818" points="173.5,1085.9795,177.5,1095.9795,181.5,1085.9795,177.5,1089.9795" style="stroke:#181818;stroke-width:1.0;"/><line style="stroke:#181818;stroke-width:1.0;" x1="177.5" x2="177.5" y1="1129.9482" y2="1149.9482"/><polygon fill="#181818" points="173.5,1139.9482,177.5,1149.9482,181.5,1139.9482,177.5,1143.9482" style="stroke:#181818;stroke-width:1.0;"/><line style="stroke:#181818;stroke-width:1.0;" x1="177.5" x2="177.5" y1="1183.917" y2="1203.917"/><polygon fill="#181818" points="173.5,1193.917,177.5,1203.917,181.5,1193.917,177.5,1197.917" style="stroke:#181818;stroke-width:1.0;"/><line style="stroke:#181818;stroke-width:1.0;" x1="177.5" x2="177.5" y1="822.0972" y2="880.1045"/><polygon fill="#181818" points="173.5,870.1045,177.5,880.1045,181.5,870.1045,177.5,874.1045" style="stroke:#181818;stroke-width:1.0;"/><line style="stroke:#181818;stroke-width:1.0;" x1="230" x2="332.5" y1="810.0972" y2="810.0972"/><polygon fill="#181818" points="328.5,1040.8467,332.5,1050.8467,336.5,1040.8467,332.5,1044.8467" style="stroke:#181818;stroke-width:1.0;"/><line style="stroke:#181818;stroke-width:1.0;" x1="332.5" x2="332.5" y1="810.0972" y2="1281.8857"/><line style="stroke:#181818;stroke-width:1.0;" x1="332.5" x2="189.5" y1="1281.8857" y2="1281.8857"/><polygon fill="#181818" points="199.5,1277.8857,189.5,1281.8857,199.5,1285.8857,195.5,1281.8857" style="stroke:#181818;stroke-width:1.0;"/><line style="stroke:#181818;stroke-width:1.0;" x1="177.5" x2="177.5" y1="1237.8857" y2="1269.8857"/><polygon fill="#181818" points="173.5,1259.8857,177.5,1269.8857,181.5,1259.8857,177.5,1263.8857" style="stroke:#181818;stroke-width:1.0;"/><line style="stroke:#181818;stroke-width:1.0;" x1="177.5" x2="177.5" y1="778.0972" y2="798.0972"/><polygon fill="#181818" points="173.5,788.0972,177.5,798.0972,181.5,788.0972,177.5,792.0972" style="stroke:#181818;stroke-width:1.0;"/><line style="stroke:#181818;stroke-width:1.0;" x1="177.5" x2="177.5" y1="1293.8857" y2="1313.8857"/><polygon fill="#181818" points="173.5,1303.8857,177.5,1313.8857,181.5,1303.8857,177.5,1307.8857" style="stroke:#181818;stroke-width:1.0;"/><rect fill="#FFFFFF" height="81.1875" rx="7.5" ry="7.5" style="stroke:#000000;stroke-width:1.0;" width="187" x="91.5" y="1342.8857"/><text fill="#000000" font-family="sans-serif" font-size="14" lengthAdjust="spacing" textLength="36" x="101.5" y="1363.8809">Color</text><text fill="#000000" font-family="sans-serif" font-size="14" lengthAdjust="spacing" textLength="94" x="145.5" y="1363.8809">Process Type</text><rect fill="#FFFFFF" height="16.2969" style="stroke:none;stroke-width:1.0;" width="44" x="97.5" y="1367.1826"/><text fill="#000000" font-family="sans-serif" font-size="14" lengthAdjust="spacing" textLength="4" x="97.5" y="1380.1777"> </text><text fill="#000000" font-family="sans-serif" font-size="14" lengthAdjust="spacing" textLength="123" x="145.5" y="1380.1777">Intermediate Step</text><rect fill="#90EE90" height="16.2969" style="stroke:none;stroke-width:1.0;" width="44" x="97.5" y="1383.4795"/><text fill="#000000" font-family="sans-serif" font-size="14" lengthAdjust="spacing" textLength="4" x="97.5" y="1396.4746"> </text><text fill="#000000" font-family="sans-serif" font-size="14" lengthAdjust="spacing" textLength="48" x="145.5" y="1396.4746">Output</text><rect fill="#FFC0CB" height="16.2969" style="stroke:none;stroke-width:1.0;" width="44" x="97.5" y="1399.7764"/><text fill="#000000" font-family="sans-serif" font-size="14" lengthAdjust="spacing" textLength="4" x="97.5" y="1412.7715"> </text><text fill="#000000" font-family="sans-serif" font-size="14" lengthAdjust="spacing" textLength="33" x="145.5" y="1412.7715">Error</text><line style="stroke:#000000;stroke-width:1.0;" x1="97.5" x2="272.5" y1="1350.8857" y2="1350.8857"/><line style="stroke:#000000;stroke-width:1.0;" x1="97.5" x2="272.5" y1="1367.1826" y2="1367.1826"/><line style="stroke:#000000;stroke-width:1.0;" x1="97.5" x2="272.5" y1="1383.4795" y2="1383.4795"/><line style="stroke:#000000;stroke-width:1.0;" x1="97.5" x2="272.5" y1="1399.7764" y2="1399.7764"/><line style="stroke:#000000;stroke-width:1.0;" x1="97.5" x2="272.5" y1="1416.0732" y2="1416.0732"/><line style="stroke:#000000;stroke-width:1.0;" x1="97.5" x2="97.5" y1="1350.8857" y2="1416.0732"/><line style="stroke:#000000;stroke-width:1.0;" x1="141.5" x2="141.5" y1="1350.8857" y2="1416.0732"/><line style="stroke:#000000;stroke-width:1.0;" x1="272.5" x2="272.5" y1="1350.8857" y2="1416.0732"/><!--MD5=[f76d9c75672b577d235f1036740f70c0]
@startuml
<style>
activityDiagram {
    BackgroundColor #FFFFFF
    BorderColor #000000
    FontColor #000
    }
</style>
start
if (Is either BWA-MEM2 or HISAT2 listed as an aligner?) then (no)
    #pink :Show error message;
    detach 
endif
:Load FASTQ(s) single sample;
:Validate Inputs;
if (using BWA-MEM2?) then (yes)
    group BWA-MEM2 Aligner
    :Align;
    :Sort;
    :Merge and mark duplicates if necessary;
    :Index BAM;
    :Create SHA512;
    :Validate outputs;
    #lightgreen :Create BAM and BAM index file;
    end group
endif

if (using HISAT2?) then (yes)
    group HISAT2 Aligner
    :Align;
    :Sort;
    :Merge and mark duplicates if necessary;
    :Index BAM;
    :Create SHA512;
    :Validate outputs;
    #lightgreen :Create BAM and BAM index file;
    end group
endif
legend
    | Color | Process Type |
    | <#White> | Intermediate Step |
    | <#LightGreen> | Output |
    | <#pink> | Error |
endlegend
stop
@enduml

PlantUML version 1.2022.6(Tue Jun 21 17:34:49 GMT 2022)
(GPL source distribution)
Java Runtime: OpenJDK Runtime Environment
JVM: OpenJDK 64-Bit Server VM
Default Encoding: UTF-8
Language: en
Country: US
--></g></svg>